<?xml version="1.0" encoding="utf-8"?>
<!-- Generator: Adobe Illustrator 18.1.1, SVG Export Plug-In . SVG Version: 6.00 Build 0)  -->
<svg version="1.1" id="Layer_1" xmlns="http://www.w3.org/2000/svg" xmlns:xlink="http://www.w3.org/1999/xlink" x="0px" y="0px"
	 viewBox="0 0 226 120" enable-background="new 0 0 226 120" xml:space="preserve">
<g>
	<path fill="#FFFFFF" d="M47.1,66.6c-0.5,2.7-0.8,5.1-1.3,7.6c-0.3,1.4-0.9,3.1-2.6,3.3c-1.7,0.2-2.2-1.4-2.5-2.6
		c-0.7-2.5-2.2-2.2-4.2-2c-4.4,0.6-8.9,1.3-13.4,0c-3.4-1-4-1.9-3.3-5.4c0.4-1.8,1.1-3.5,1.9-5.1c0.8-1.6,1.6-3.3,2.1-5.1
		c0.9-3.1,0.1-4.2-3.3-4.6c-2.3-0.3-4.6,0.3-6.9,0.7c-1.6,0.2-3.3,0.6-4.9,0.7c-4.1,0.3-6.1-1.5-6.7-5.5c-0.4-2.9,0.1-5.7,2.1-7.9
		c4.6-5.2,10.6-8,17.1-9.6c0.6-0.2,1.5-0.2,1.8,0.4c0.3,0.6-0.3,1.2-0.8,1.7c-2.3,2-5.1,3.2-7.7,4.6c-2.7,1.4-5.4,2.6-7.5,4.9
		c-1.2,1.4-2.6,2.9-1.8,4.9c0.8,2.2,2.8,2.6,5,2.5c1.7-0.1,3.3-0.3,5-0.5c1.2-0.1,2.3-0.4,3.5-0.5c9.6-0.8,11.9,2.5,7.9,11.3
		c-0.8,1.7-1.6,3.3-2.1,5.1c-0.9,3.1,0,4.4,3.1,4.7c2.7,0.2,5.3-0.6,7.9-1.2c2.2-0.5,1.5-2.4,1.3-3.7c-1-6.6-2.2-13.1-3.3-19.7
		c-1.3-8-3-16-3.3-24.2c0-1.3-1-3.5,1.2-3.7c1.9-0.2,1.9,2,2.2,3.4c1.8,8.1,2.3,16.5,3.5,24.7c1,6.7,2,13.4,4.7,20.7
		c1.5-3,1.1-5.3,0.8-7.5c-0.3-2.1-0.1-4,0.5-5.9c0.2-0.7,0.7-1.2,1.4-1.2c0.7,0,1.3,0.5,1.5,1.2c0.4,1.1,0.7,2.2,1,3.3
		c0.2,0.9,0.6,1.7,1.6,1.6c0.9-0.1,1.3-1,1.4-1.8c0.3-1.8,0.4-3.6,0.8-5.4c0.3-1.4,1.2-2.4,2.8-2.4c1.4,0,2.1,0.9,2.5,2.1
		c0.3,0.8,0.6,1.6,0.9,2.3c0.3,0.6,0.5,1.3,1.3,1.3c0.8,0,1.2-0.5,1.4-1.2c0.3-1,0.2-2.6,1.9-2.5c1.6,0.1,2.2,1.3,2.5,2.7
		c0.4,1.6,0.7,3.2,1.1,4.9c0.2,1,0.5,2.3,1.4,2.4c1.4,0.2,1.6-1.4,2-2.5c0.6-1.5,0.9-3.2,1.4-4.8c0.4-1.1,1.2-2.2,2.5-2.2
		c1.3,0,2,1.1,2.5,2.2c0.8,1.7,0.9,3.5,0.5,5.4c-0.6,2.6-0.9,5.2-1.3,7.9c-0.1,0.8-0.3,1.9,0.4,2.4c0.8,0.6,1.5-0.2,2.1-0.7
		c0.4-0.3,0.8-0.7,1.2-0.9c0.4-0.2,1-0.3,1.4-0.1c0.6,0.3,0.7,1.1,0.6,1.7c-0.4,2.5-4.1,5.5-6.5,5.4c-1.5-0.1-1.9-1.2-2.1-2.4
		c-0.5-2.5-0.1-5,0.4-7.4c0.1-0.6,0.1-1.5-0.8-1.5c-0.3,0-0.8,0.5-1,0.9c-1,1.8-0.6,3.9-0.9,5.9c-0.2,1.3-0.5,2.9-2.1,3
		c-1.8,0.2-2.6-1.4-2.8-2.9c-0.2-2-0.1-4-0.2-6c-0.1-1.2-0.2-2.3-0.5-3.4c-0.1-0.6-0.5-1.4-1.4-1c-0.4,0.2-0.8,0.7-0.8,1.1
		c-0.2,2.2-0.2,4.3-0.3,6.5c-0.1,1.7,0.7,4.4-1.5,4.6c-2.2,0.1-2.6-2.6-3-4.6c-0.6-2.8,0-5.7-1.1-8.4c-0.2-0.6-0.2-1.4-1.1-1.4
		c-0.8,0-1,0.7-1.2,1.4c-0.6,2.1-0.8,4.2-0.7,6.4c0.1,1.2-0.1,2.3-0.2,3.5c-0.1,0.8-0.4,1.7-1.4,1.7c-0.7,0.1-1.2-0.4-1.5-1.1
		C48.7,68.1,48.7,67.1,47.1,66.6z"/>
	<path fill="#FFFFFF" d="M216.6,56.1c-5.9,2.3-12.1,1.9-18.1,2.8c-7.4,1.2-14.8,2.1-22.2,3.2c-1.2,0.2-3.1,0.1-2.8,2
		c0.6,3.6-1.1,3.1-2.8,1.6c-2.4-2.1-4.8-1.8-7.5-1.2C142.8,69,122.8,74.8,103,81.2c-27.9,9-55.1,20.1-82.1,31.4
		c-1.2,0.5-2.3,1.3-4.2,1.1c1.7-1.8,3.5-2.4,5.2-3.2c34.4-16.7,70-30.2,106.9-40.5c10.9-3.1,22-5.5,33-7.9c4.4-1,4.4-1,3-5.2
		c-0.8-2.3-1.7-4.6-2.8-7.7c-1.5,2.6-1.6,5.1-3.2,6.7c-1.2,1.2-2.4,2.5-4.3,1.9c-1.6-0.5-2.2-2.1-2.4-3.6c-0.9-5.1,0.6-9.9,2.2-14.6
		c0.4-1.3,1.5-1.7,2.8-1.8c2.5-0.2,2.9-1.7,2.6-3.9c-0.9-5-0.7-10-0.7-15c0-1,0-2,0.1-3c0.1-0.9,0.3-1.7,1.3-1.8
		c0.9-0.1,1.6,0.5,1.9,1.4c1.1,3,1.7,6.1,1.8,9.3c0.1,6.5,0.3,13,1,19.5c0.4,3.7,1.1,7.3,2.5,10.6c2.1,4.9,3.3,5.5,8.4,4.6
		c12.5-2,25-3.6,37.7-3.4C214.7,56.1,215.6,56.1,216.6,56.1z M155.3,49.3c0.2,1.3,0.2,3,1.4,3.1c1.6,0,1.1-1.7,1.2-2.8
		c0.1-1,0-2,0.7-2.8c1.1-1.3,2.6-3,0.5-3.9c-1.5-0.7-2.5,1.7-3,3.3C155.7,47.2,155.6,48.4,155.3,49.3z"/>
	<path fill="#FFFFFF" d="M88.8,37.1c-8-0.3-8.1-0.2-7.7,7.4c0.4,7.1,1.4,14.2,2.9,21.2c0.4,1.8,1,2.2,2.7,1.5c4-1.6,8.1-2,12.2-0.3
		c2.2,0.9,4.2,2.1,5.2,4.4c0.6,1.3,0.2,1.9-1.2,1.8c-1.6-0.1-2.9-0.9-4-1.8c-3.7-3.1-7.4-2.3-11,0.1c-0.3,0.2-0.5,0.4-0.8,0.6
		c-4,2.7-4,2.7-5.1-2.2c-2.2-9.2-3.5-18.6-4.9-28c-0.6-4.1-1.5-7.5-6.3-8.3c-0.8-0.1-1.5-0.7-2.2-1.2c-0.8-0.6-1.6-1.5-0.9-2.5
		c0.5-0.8,1.5-0.6,2.3-0.4c0.5,0.1,0.9,0.3,1.4,0.4c3,0.5,3.4,0.2,3.5-2.9c0-1.3-0.1-2.7-0.3-4c-0.1-1.2-0.4-2.3-0.5-3.4
		C73.3,10.1,77,4.7,85.9,2.3c4.3-1.1,8.2-0.1,11.7,2.6c6.4,5.1,9.5,15.3,7,23c-1.8,5.5-6.1,8.8-11.8,9.1
		C91.3,37.2,89.8,37.1,88.8,37.1z M77.8,21c0.1,1.7,0.1,3.3,0.3,5c1.1,7.3,6.2,10.4,13.3,8c9-3.1,12.2-15.5,6.1-23.8
		C93.1,4.1,83.6,4.8,80,11.4C78.3,14.4,77.8,17.6,77.8,21z"/>
	<path fill="#FFFFFF" d="M121.8,48c-0.3-3.5,0.4-7,2.8-10c3.1-3.7,6.2-3.2,7.5,1.3c1.2,4.1,2,8.4,3.1,12.6c0.2,0.8,0.7,1.9,1.2,2
		c1.2,0.3,1.6-1,1.9-1.9c1.2-4,1.8-8.1,1-12.3c-0.2-1.2-0.8-3.1,0.5-3.7c1.6-0.7,2.6,1,3.4,2.3c3.6,5.6,4.4,12.1,5.8,18.5
		c0.1,0.4-0.1,1.2-0.4,1.3c-0.6,0.3-1.2-0.2-1.7-0.6c-1.7-1.4-1.8-3.5-2.4-5.4c-0.2-0.6-0.6-1.5-1-1.6c-0.9-0.2-1.4,0.7-1.8,1.5
		c-0.6,1.2-0.9,2.5-1.6,3.7c-1.5,2.8-3.3,3.4-5.5,1.3c-2.2-2.1-3.2-2.1-4.8,0.6c-2,3.2-3.8,3.1-5.9-0.1
		C122,54.7,121.7,51.6,121.8,48z M127.3,41.1c-2,3.2-1.2,6.4-1.2,9.4c0,0.6-0.2,1.4,0.6,1.6c0.8,0.1,1.1-0.6,1.2-1.3
		C128.7,47.8,129,44.7,127.3,41.1z"/>
	<path fill="#FFFFFF" d="M93.7,54.1c0.1-1,0.2-2.5,0.4-3.9c0.1-0.8,0.6-1.7,1.5-1.8c1.1-0.2,1.3,0.8,1.4,1.6c0.1,0.5,0.2,1.1,0.7,1
		c0.4,0,0.9-0.5,1-0.9c0.4-1.9,0.8-3.9,1.1-5.9c0.2-0.8,0.3-1.7,1.2-2c1.1-0.4,1.9,0.2,2.6,1c2,2.2,2.2,5.1,3.1,7.8
		c0.6,1.6,0.1,4.5,2.3,4.3c1.7-0.1,1.7-2.9,1.8-4.7c0.1-2.5-0.2-5,1.2-7.3c0.6-1,1.4-1.9,2.7-1.8c1.2,0.1,1.3,1.4,1.6,2.3
		c1.8,5.7,3.5,11.4,5.3,17.1c0.2,0.7,0.2,1.4-0.4,1.8c-0.6,0.4-1.3-0.1-1.8-0.5c-1.6-1.4-2.2-3.2-2.5-5.3c-0.2-1.3-0.6-2.6-0.9-3.9
		c-0.1-0.5-0.3-1.1-0.9-0.9c-0.4,0.1-0.9,0.4-1.2,0.8c-1.2,1.3-0.9,3.1-1.4,4.7c-0.3,1.1-0.4,2.3-0.7,3.4c-0.4,1.3-1,2.6-2.5,2.9
		c-1.7,0.3-2.1-1.3-2.7-2.4c-1.3-2.7-2.1-5.6-2.8-8.5c-0.2-0.7,0.2-1.9-1.1-1.8c-0.9,0.1-1.3,1-1.5,1.8c-0.5,2.3-0.9,4.5-1.3,6.8
		c-0.3,1.8-0.1,4.3-2.2,4.5c-2.4,0.3-2.8-2.4-3.5-4.2C93.8,58.3,93.8,56.5,93.7,54.1z"/>
	<path fill="#FFFFFF" d="M83.9,51.8c-0.2-3.3,0.3-5.8,2.8-7.4c0.7-0.4,2.1-0.4,1.8,0.6c-1,4.2,0,8.5-0.5,12.8
		c-0.1,0.8-0.3,1.8-1.3,1.8c-0.9,0-1.3-0.9-1.6-1.6C84.3,55.8,83.6,53.6,83.9,51.8z"/>
</g>
</svg>
